<?xml version="1.0" encoding="UTF-8" standalone="no"?>
<!DOCTYPE svg PUBLIC "-//W3C//DTD SVG 1.1//EN" "http://www.w3.org/Graphics/SVG/1.1/DTD/svg11.dtd">
<svg version="1.1" xmlns="http://www.w3.org/2000/svg" xmlns:xlink="http://www.w3.org/1999/xlink" preserveAspectRatio="xMidYMid meet" viewBox="0 0 100 100" width="100" height="100"><defs><path d="M75.75 12.5C82.24 12.5 87.5 17.76 87.5 24.25C87.5 36.9 87.5 63.1 87.5 75.75C87.5 82.24 82.24 87.5 75.75 87.5C63.1 87.5 36.9 87.5 24.25 87.5C17.76 87.5 12.5 82.24 12.5 75.75C12.5 63.1 12.5 36.9 12.5 24.25C12.5 17.76 17.76 12.5 24.25 12.5C36.9 12.5 63.1 12.5 75.75 12.5Z" id="c171bJQAOc"></path><path d="M46.6 46.22L56.5 42.45L56.5 50L56.5 57.55L46.6 53.78L36.71 50L46.6 46.22Z" id="c5BthDqYn"></path></defs><g><g><g><g><filter id="shadow14233886" x="-5.5" y="-5.5" width="113" height="113" filterUnits="userSpaceOnUse" primitiveUnits="userSpaceOnUse"><feFlood></feFlood><feComposite in2="SourceAlpha" operator="in"></feComposite><feGaussianBlur stdDeviation="2.24"></feGaussianBlur><feOffset dx="2" dy="2" result="afterOffset"></feOffset><feFlood flood-color="#000000" flood-opacity="0.5"></feFlood><feComposite in2="afterOffset" operator="in"></feComposite><feMorphology operator="dilate" radius="1"></feMorphology><feComposite in2="SourceAlpha" operator="out"></feComposite></filter><path d="M75.75 12.5C82.24 12.5 87.5 17.76 87.5 24.25C87.5 36.9 87.5 63.1 87.5 75.75C87.5 82.24 82.24 87.5 75.75 87.5C63.1 87.5 36.9 87.5 24.25 87.5C17.76 87.5 12.5 82.24 12.5 75.75C12.5 63.1 12.5 36.9 12.5 24.25C12.5 17.76 17.76 12.5 24.25 12.5C36.9 12.5 63.1 12.5 75.75 12.5Z" id="a12EfAepg" fill="white" fill-opacity="1" filter="url(#shadow14233886)"></path></g><use xlink:href="#c171bJQAOc" opacity="1" fill="#f0f0f0" fill-opacity="1"></use><g><use xlink:href="#c171bJQAOc" opacity="1" fill-opacity="0" stroke="#212121" stroke-width="1" stroke-opacity="1"></use></g></g><g><use xlink:href="#c5BthDqYn" opacity="1" fill="#232323" fill-opacity="1"></use></g></g></g></svg>